<?xml version="1.0" encoding="utf-8"?>
<!-- Generator: Adobe Illustrator 19.0.0, SVG Export Plug-In . SVG Version: 6.00 Build 0)  -->
<svg version="1.1" id="Layer_1" xmlns="http://www.w3.org/2000/svg" xmlns:xlink="http://www.w3.org/1999/xlink" x="0px" y="0px"
	 viewBox="-211 129 189 536" style="enable-background:new -211 129 189 536;" xml:space="preserve">
<g transform="translate(0.000000,536.000000) scale(0.100000,-0.100000)">
	<path id="Hand" d="M-2067.6,1519.9c49.1,0,107.7-9.6,157.1-19.5l-0.2-0.5l18-63c22-76,34-287,16-287c-14,0-34,45-52,120
		c-8,33-14,47-17,35c-2-11-10-47-19-80c-19-77-17-144,8-206c20-53,25-99,9-99c-14,0-68,84-108,168c-32,68-36,88-40,177
		C-2099.6,1358.4-2086.1,1480.8-2067.6,1519.9z"/>
	<path id="Legs" d="M-687,1511.3c8.1-79,20.8-139,39.3-200.8c7-21.1,14-122.4,17-225.7c6-211.6-5-337-43-467.4
		c-22-75.2-24-102.3-24-260.8c1-98.3,8-226.7,16-287.8c31-241.7,16-397.2-68-712.1c-61-230.7-60-225.7-48-258.8
		c5-17.1,10-44.1,10-61.2c0-49.1,27-124.4,58-164.5c38-48.1,52-76.2,52-101.3c0-28.1-13-33.1-89-36.1c-36-1-91-6-122-10
		c-54-7-56-6-86,28.1l-31,35.1l3,149.4c1,120.4,5,155.5,20,183.5c16,30.1,17,51.2,12,165.5c-4,71.2-13,164.5-21,205.6
		c-18,94.3-23,287.8-12,501.5c7,142.4,5,186.6-13,315.9c-11,83.2-27,173.5-36,200.6c-25,75.2-78,373.1-95,525.6
		c-6,52.2-13,97.3-15,100.3c-3,2-5-2-5-10c0-84.2-67-481.4-102-605.8c-11-38.1-29-135.4-40-215.6c-17-124.4-18-169.5-11-310.9
		c10-212.6,6-394.2-12-501.5c-8-47.1-18-137.4-21-202.6c-6-99.3-4-123.4,11-160.5c21-51.2,30-319.9,13-354c-21-38.1-51-56.2-88-50.1
		c-19,2-74,6-121,8c-47,2-91,7-97,11c-24,14-12,60.2,29,112.3c48,62.2,68,112.3,69,170.5c0,23.1,5,54.2,10,71.2
		c9,24.1,5,52.2-21,149.4c-103,396.2-103,395.2-103,585.7c0,96.3,5,261.8,12,366.1c18,280.8,16,317.9-12,426.3
		c-38,146.4-50,241.7-49,411.2c0,121.4,5,177.5,22,255.8c17.5,82,31.3,150.5,39.6,210.4C-1320.7,1503.5-1005.3,1519.8-687,1511.3z"
		/>
	<path d="M-976.6,3290.4c-31.8,38.3-29,100.3,7.9,158.5c16,25,37,73,47,106c9,33,23,79,31,103c17,55,16,74-2,98c-8,11-15,41-15,70
		c0,94-68,188-159,220c-46,17-146,17-192,0c-94-33-159-124-159-221c0-25-7-57-16-70c-14-21-15-32-5-68c7-23,18-67,25-97
		c13-57,58-154,76-165c14.7-8.8,12.1-88.1-3.9-123.5C-1222.2,3306.9-1096.5,3293.2-976.6,3290.4z"/>
	<path id="Core" d="M-725.7,2137.9c-2-112,1-191,8-215c6-21,15-130,20-243c3.1-72.6,6.7-130.3,11.8-179.5
		c-318.3,8.6-636.6-9.7-954.9-10.4c10.2,73.1,14.9,140.4,17.1,227.9c2,86,9,173,15,192c6,20,11,109,11,215c0,171-1,183-25,234
		c-10.6,22.6-21.1,40.7-26.5,46.9c-14.9,254.4,17.1,501,21.1,755c4.8,1.4,9.7,2.8,14.4,4.1c130,35,250,95,271,134
		c0.4,0.8,4,10.3,4.4,11.1c119.4,5.5,235.5-8.3,355.4-11c1-1.2,8.2-10.9,9.2-12c37-40,155-94,278-128c13.7-3.5,27.3-7.3,40.4-11.1
		c11.3-250.9-39.5-494.1-23.1-745.7c-5.6-7.1-13.7-21-21.3-38.2C-719.7,2319.9-722.7,2295.9-725.7,2137.9z"/>
	<path id="Hand_1_" d="M-324.7,987.9c-65-104-76-91-40,47c22,85,23,110,2,199c-18,82-26,84-40,11c-9-52-33-97-47-89
		c-15,10-4,193,17,279l15.8,65.1c48.3,8.1,90.3,16,136.2,18.8c-10.4-2.5-10.4-2.5,0,0c8.5,0.5,17.1,0.8,25.9,1
		c1.4-6,2.7-11.1,4-14.9c12-37,17-88,17-195C-232.7,1145.9-239.7,1119.9-324.7,987.9z"/>
	<path d="M-254.7,1519.8c-0.4,1.6-0.7,3.3-1.1,5c-10.2-2.5-18.5-4.5-24.8-6C-272.2,1519.3-263.6,1519.6-254.7,1519.8z"/>
	<path id="Arm" d="M-280,1516.8c-45.9-2.8-89.6-12.9-137.9-21l2.2,9.1l-78,190c-87,214-114,310-114,406c0,44-7,82-19,110
		c-11,24-24,77-30,117c-5,41-12,76-15,79c-1.1,1.1-7.1-5.9-10.3-9.9c-16.4,251.6,32.3,501.4,21.1,752.4
		c46.1-13.5,90.9-29,100.2-34.5c70-46,130-156,139-255c3-36,17-119,30-186c36-180,46-301,33-387c-10-69-9-77,16-136
		c28-68,37-129,60-411c7.5-89.4,18.5-175,27.5-217.1C-265.4,1520.3-273.6,1518.3-280,1516.8z"/>
	<path id="Arm_1_" d="M-1647,2403c-1.8,2-5.2,5.5-5.7,4.8c-3-2-12-43-20-89c-8-47-21-102-30-122c-8-20-15-65-15-99
		c-1-95-29-193-115-406l-77.5-193.6c-49.4,9.8-109.6,18.6-158.7,18.7c0.3,0.6,1.9,4.3,2.2,4.9c5,10,18,129,29,265
		c21,256,30,314,57,367c13,25,17,66,18,211c1,154,5,198,27,300c14,66,29,151,32,188c9,114,74,225,155,266
		c18.2,9.1,73.2,28.2,123.2,42.7C-1629.5,2907.6-1661.9,2657.4-1647,2403z"/>
</g>
</svg>
