<?xml version="1.0" encoding="utf-8"?>
<!-- Generator: Adobe Illustrator 19.0.0, SVG Export Plug-In . SVG Version: 6.00 Build 0)  -->
<svg version="1.1" id="Layer_1" xmlns="http://www.w3.org/2000/svg" xmlns:xlink="http://www.w3.org/1999/xlink" x="0px" y="0px"
	 viewBox="-211 129 189 536" style="enable-background:new -211 129 189 536;" xml:space="preserve">
<style type="text/css">
	.st0{fill:#E0A42D;}
</style>
<g transform="translate(0.000000,536.000000) scale(0.100000,-0.100000)">
	<path id="Hand" class="st0" d="M-2063.9,1518.5c49.1,0,107.7-9.6,157.1-19.5l-0.2-0.5l18-63c22-76,34-287,16-287
		c-14,0-34,45-52,120c-8,33-14,47-17,35c-2-11-10-47-19-80c-19-77-17-144,8-206c20-53,25-99,9-99c-14,0-68,84-108,168
		c-32,68-36,88-40,177C-2095.9,1357-2082.4,1479.4-2063.9,1518.5z"/>
	<path id="Legs" d="M-682.2,1499c8.1-78.8,19.7-135.9,38.2-197.5c7-21,14-122,17-225c6-211-5-336-43-466c-22-75-24-102-24-260
		c1-98,8-226,16-287c31-241,16-396-68-710c-61-230-60-225-48-258c5-17,10-44,10-61c0-49,27-124,58-164c38-48,52-76,52-101
		c0-28-13-33-89-36c-36-1-91-6-122-10c-54-7-56-6-86,28l-31,35l3,149c1,120,5,155,20,183c16,30,17,51,12,165c-4,71-13,164-21,205
		c-18,94-23,287-12,500c7,142,5,186-13,315c-11,83-27,173-36,200c-25,75-78,372-95,524c-6,52-13,97-15,100c-3,2-5-2-5-10
		c0-84-67-480-102-604c-11-38-29-135-40-215c-17-124-18-169-11-310c10-212,6-393-12-500c-8-47-18-137-21-202c-6-99-4-123,11-160
		c21-51,30-319,13-353c-21-38-51-56-88-50c-19,2-74,6-121,8s-91,7-97,11c-24,14-12,60,29,112c48,62,68,112,69,170c0,23,5,54,10,71
		c9,24,5,52-21,149c-103,395-103,394-103,584c0,96,5,261,12,365c18,280,16,317-12,425c-38,146-50,241-49,410c0,121,5,177,22,255
		c17.5,81.8,29.6,145.4,37.9,205.1C-1318.8,1489.2-1000.5,1507.5-682.2,1499z"/>
	<path d="M-972.9,3289c-31.8,38.3-29,100.3,7.9,158.5c16,25,37,73,47,106c9,33,23,79,31,103c17,55,16,74-2,98c-8,11-15,41-15,70
		c0,94-68,188-159,220c-46,17-146,17-192,0c-94-33-159-124-159-221c0-25-7-57-16-70c-14-21-15-32-5-68c7-23,18-67,25-97
		c13-57,58-154,76-165c14.7-8.8,12.1-88.1-3.9-123.5C-1218.5,3305.5-1092.8,3291.8-972.9,3289z"/>
	<path id="Core" d="M-722,2136.5c-2-112,1-191,8-215c6-21,15-130,20-243c3.1-72.6,6.7-130.3,11.8-179.5
		c-318.3,8.6-636.6-9.7-954.9-10.4c10.2,73.1,14.9,140.4,17.1,227.9c2,86,9,173,15,192c6,20,11,109,11,215c0,171-1,183-25,234
		c-10.6,22.6-21.1,40.7-26.5,46.9c-14.9,254.4,17.1,501,21.1,755c4.8,1.4,9.7,2.8,14.4,4.1c130,35,250,95,271,134
		c0.4,0.8,0.7,1.7,1.1,2.5c119.4,5.5,245.1-8.3,365-11c1-1.2,1.9-2.4,2.9-3.5c37-40,155-94,278-128c13.7-3.5,27.3-7.3,40.4-11.1
		c11.3-250.9-39.5-494.1-23.1-745.7c-5.6-7.1-13.7-21-21.3-38.2C-716,2318.5-719,2294.5-722,2136.5z"/>
	<path id="Hand_1_" class="st0" d="M-321,986.5c-65-104-76-91-40,47c22,85,23,110,2,199c-18,82-26,84-40,11c-9-52-33-97-47-89
		c-15,10-4,193,17,279l15.8,65.1c48.3,8.1,90.3,16,136.2,18.8c-10.4-2.5-10.4-2.5,0,0c8.5,0.5,17.1,0.8,25.9,1
		c1.4-6,2.7-11.1,4-14.9c12-37,17-88,17-195C-229,1144.5-236,1118.5-321,986.5z"/>
	<path d="M-251,1518.4c-0.4,1.6-0.7,3.3-1.1,5c-10.2-2.5-18.5-4.5-24.8-6C-268.5,1517.9-259.9,1518.2-251,1518.4z"/>
	<path id="Arm" d="M-277,1517.4c-45.9-2.8-87.9-10.7-136.2-18.8l1.2,4.9l-78,190c-87,214-114,310-114,406c0,44-7,82-19,110
		c-11,24-24,77-30,117c-5,41-12,76-15,79c-1.1,1.1-3.5-0.8-6.7-4.8c-16.4,251.6,34.3,494.7,23.1,745.7
		c46.1-13.5,85.3-27.4,94.6-32.9c70-46,130-156,139-255c3-36,17-119,30-186c36-180,46-301,33-387c-10-69-9-77,16-136
		c28-68,37-129,60-411c7.5-89.4,17.8-173,26.8-215.1C-262.4,1520.9-270.6,1518.9-277,1517.4z"/>
	<path id="Arm_1_" d="M-1645.5,2404.4c-1.8,2-3,2.8-3.5,2.1c-3-2-12-43-20-89c-8-47-21-102-30-122c-8-20-15-65-15-99
		c-1-95-29-193-115-406l-77.8-191.5c-49.4,9.8-108,19.4-157.1,19.5c0.3,0.6,0.6,1.4,0.9,2c5,10,18,129,29,265c21,256,30,314,57,367
		c13,25,17,66,18,211c1,154,5,198,27,300c14,66,29,151,32,188c9,114,74,225,155,266c18.2,9.1,70.6,27.4,120.6,41.9
		C-1628.4,2905.5-1660.4,2658.8-1645.5,2404.4z"/>
</g>
</svg>
