<?xml version="1.0" standalone="no"?>
<!DOCTYPE svg PUBLIC "-//W3C//DTD SVG 20010904//EN"
 "http://www.w3.org/TR/2001/REC-SVG-20010904/DTD/svg10.dtd">
<svg version="1.0" xmlns="http://www.w3.org/2000/svg"
 width="189.000000pt" height="536.000000pt" viewBox="0 0 189.000000 536.000000"
 preserveAspectRatio="xMidYMid meet">

<g transform="translate(0.000000,536.000000) scale(0.100000,-0.100000)"
fill="#000000" stroke="none">
<path d="M849 5336 c-94 -33 -159 -124 -159 -221 0 -25 -7 -57 -16 -70 -14
-21 -15 -32 -5 -68 7 -23 18 -67 25 -97 13 -57 58 -154 76 -165 15 -9 12 -92
-5 -126 -21 -39 -141 -99 -271 -134 -54 -15 -115 -36 -135 -46 -81 -41 -146
-152 -155 -266 -3 -37 -18 -122 -32 -188 -22 -102 -26 -146 -27 -300 -1 -145
-5 -186 -18 -211 -27 -53 -36 -111 -57 -367 -11 -136 -24 -255 -29 -265 -19
-37 -33 -162 -29 -257 4 -89 8 -109 40 -177 40 -84 94 -168 108 -168 16 0 11
46 -9 99 -25 62 -27 129 -8 206 9 33 17 69 19 80 3 12 9 -2 17 -35 18 -75 38
-120 52 -120 18 0 6 211 -16 287 l-18 63 78 192 c86 213 114 311 115 406 0 34
7 79 15 99 9 20 22 75 30 122 8 46 17 87 20 89 2 3 16 -19 30 -49 24 -51 25
-63 25 -234 0 -106 -5 -195 -11 -215 -6 -19 -13 -106 -15 -192 -4 -159 -16
-251 -55 -433 -17 -78 -22 -134 -22 -255 -1 -169 11 -264 49 -410 28 -108 30
-145 12 -425 -7 -104 -12 -269 -12 -365 0 -190 0 -189 103 -584 26 -97 30
-125 21 -149 -5 -17 -10 -48 -10 -71 -1 -58 -21 -108 -69 -170 -41 -52 -53
-98 -29 -112 6 -4 50 -9 97 -11 47 -2 102 -6 121 -8 37 -6 67 12 88 50 17 34
8 302 -13 353 -15 37 -17 61 -11 160 3 65 13 155 21 202 18 107 22 288 12 500
-7 141 -6 186 11 310 11 80 29 177 40 215 35 124 102 520 102 604 0 8 2 12 5
10 2 -3 9 -48 15 -100 17 -152 70 -449 95 -524 9 -27 25 -117 36 -200 18 -129
20 -173 13 -315 -11 -213 -6 -406 12 -500 8 -41 17 -134 21 -205 5 -114 4
-135 -12 -165 -15 -28 -19 -63 -20 -183 l-3 -149 31 -35 c30 -34 32 -35 86
-28 31 4 86 9 122 10 76 3 89 8 89 36 0 25 -14 53 -52 101 -31 40 -58 115 -58
164 0 17 -5 44 -10 61 -12 33 -13 28 48 258 84 314 99 469 68 710 -8 61 -15
189 -16 287 0 158 2 185 24 260 38 130 49 255 43 466 -3 103 -10 204 -17 225
-30 100 -42 188 -50 377 -5 113 -14 222 -20 243 -7 24 -10 103 -8 215 3 158 6
182 26 226 12 27 25 46 28 43 3 -3 10 -38 15 -79 6 -40 19 -93 30 -117 12 -28
19 -66 19 -110 0 -96 27 -192 114 -406 l78 -190 -17 -70 c-21 -86 -32 -269
-17 -279 14 -8 38 37 47 89 14 73 22 71 40 -11 21 -89 20 -114 -2 -199 -36
-138 -25 -151 40 -47 85 132 92 158 91 322 0 107 -5 158 -17 195 -10 29 -23
128 -32 235 -23 282 -32 343 -60 411 -25 59 -26 67 -16 136 13 86 3 207 -33
387 -13 67 -27 150 -30 186 -9 99 -69 209 -139 255 -12 7 -73 28 -135 44 -123
34 -241 88 -278 128 -35 38 -33 102 5 162 16 25 37 73 47 106 9 33 23 79 31
103 17 55 16 74 -2 98 -8 11 -15 41 -15 70 0 94 -68 188 -159 220 -46 17 -146
17 -192 0z"/>
</g>
</svg>
